<?xml version="1.0" encoding="UTF-8"?>
<svg viewBox="0 0 48 48" xmlns="http://www.w3.org/2000/svg">
 <defs>
  <filter id="i" color-interpolation-filters="sRGB">
   <feGaussianBlur stdDeviation="0.755"/>
  </filter>
  <radialGradient id="j" cx="35.488" cy="26.2" r="23" gradientTransform="matrix(1.0434 -1.4644 1.402 .99901 -62.776 34.471)" gradientUnits="userSpaceOnUse">
   <stop stop-color="#2e3436" offset="0"/>
   <stop stop-color="#555753" offset="1"/>
  </radialGradient>
  <linearGradient id="k" x2="0" y1="1.781" y2="41.75" gradientUnits="userSpaceOnUse">
   <stop stop-color="#fff" stop-opacity=".4" offset="0"/>
   <stop stop-color="#fff" stop-opacity="0" offset="1"/>
  </linearGradient>
  <linearGradient id="l" x2="0" y1="10.144" y2="42.775" gradientUnits="userSpaceOnUse">
   <stop stop-color="#729fcf" offset="0"/>
   <stop stop-color="#3465a4" offset="1"/>
  </linearGradient>
  <linearGradient id="m" x2="0" y1="10.144" y2="42.775" gradientUnits="userSpaceOnUse">
   <stop stop-color="#204a87" offset="0"/>
   <stop stop-color="#183768" offset="1"/>
  </linearGradient>
  <linearGradient id="n" x2="0" y1="11.188" y2="41.75" gradientUnits="userSpaceOnUse">
   <stop stop-color="#fff" stop-opacity=".8" offset="0"/>
   <stop stop-color="#fff" stop-opacity="0" offset="1"/>
  </linearGradient>
  <linearGradient id="o" x1="7.935" x2="20.05" y1="-28.25" y2="36.1" gradientUnits="userSpaceOnUse">
   <stop stop-color="#fff" offset="0"/>
   <stop stop-color="#fff" stop-opacity="0" offset="1"/>
  </linearGradient>
  <radialGradient id="p" cx="24.919" cy="48.2" r="25.941" gradientTransform="matrix(1 0 0 .1063 0 43.08)" gradientUnits="userSpaceOnUse">
   <stop stop-color="#2e3436" offset="0"/>
   <stop stop-color="#2e3436" stop-opacity="0" offset="1"/>
  </radialGradient>
 </defs>
 <path transform="matrix(.9653 0 0 .81481 -.05469 4.2286)" d="m50.86 48.204a25.941 2.7575 0 1 1 -51.882 0 25.941 2.7575 0 1 1 51.882 0z" fill="url(#p)"/>
 <g transform="matrix(.95745 0 0 .95745 1.0213 3.166)">
  <path d="m1.5 1.2452v41.029h45v-34.514h-18.835l-5.4977-6.5158h-20.667z" fill="url(#j)" stroke="#2e3436" stroke-linecap="square" stroke-linejoin="round"/>
  <path d="m2.5312 2.2812v38.969h42.938v-32.469h-17.812a1.0267 1.0267 0 0 1 -0.78125 -0.375l-5.1875-6.125h-19.156z" fill="none" opacity=".8" stroke="url(#k)" stroke-linecap="square" stroke-linejoin="round"/>
  <path transform="translate(0,-1.7)" d="m18.656 11.188-2.875 6.3438a0.54138 0.54138 0 0 1 -0.5 0.3125h-13.75l0.5 23.906h43.938l0.5-30.562h-27.812z" filter="url(#i)"/>
  <path d="m18.31 10.644-3.0377 6.6541h-14.273l0.5 24.977h45l0.5-31.631h-28.69z" fill="url(#l)" stroke="url(#m)" stroke-linecap="square" stroke-linejoin="round"/>
  <path d="m18.969 11.688-2.75 6.0625a1.0267 1.0267 0 0 1 -0.9375 0.59375h-13.219l0.4375 22.906h43l0.4375-29.562h-26.969z" fill="none" opacity=".8" stroke="url(#n)" stroke-linecap="square" stroke-linejoin="round"/>
  <path d="m18.656 11.156-2.9062 6.375c-0.08919 0.17607-0.27142 0.28541-0.46875 0.28125h-13.781l0.3125 15.344c12.19-5.1847 30.417-10.314 44.531-12.75l0.15625-9.25h-27.844z" fill="url(#o)" opacity=".8"/>
 </g>
</svg>
